<svg preserveAspectRatio="xMidYMid meet" width="100%" height="100%" overflow="visible" style="display: block;" viewBox="0 0 270.775 287.874" fill="none" xmlns="http://www.w3.org/2000/svg">
<g id="Group">
<path id="Vector" d="M270.595 166.604L187.569 166.576L246.262 229.563L215.617 261.884L156.745 199.184V287.874H113.683V199.376L54.8234 261.802L24.4359 229.208L83.3855 166.618H0L0.179978 120.762L70.6083 121.076C73.7962 124.494 133.453 188.506 134.571 189.709C148.942 174.479 184.895 136.703 199.768 121.049L270.775 121.076L270.595 166.618V166.604Z" fill="var(--fill-0, #FEE6DD)"/>
<path id="Vector_2" d="M156.706 88.3483L156.744 0.0546879L113.67 0V88.485L55.1059 25.8263L24.4615 58.1469L134.571 176.3L150.15 159.88L246.3 58.5024L215.925 25.9084L156.706 88.3483Z" fill="var(--fill-0, #FF6A29)"/>
</g>
</svg>
