<svg preserveAspectRatio="none" width="100%" height="100%" overflow="visible" style="display: block;" viewBox="0 0 192 192" fill="none" xmlns="http://www.w3.org/2000/svg">
<g id="fi_4249182">
<path id="Vector" d="M42.126 175.611L54.636 188.121C55.1986 188.683 55.9615 188.999 56.757 188.999C57.5525 188.999 58.3154 188.683 58.878 188.121L66.378 180.621C66.9404 180.058 67.2564 179.295 67.2564 178.5C67.2564 177.704 66.9404 176.942 66.378 176.379L53.868 163.869C53.2948 163.327 52.5359 163.025 51.747 163.025C50.9581 163.025 50.1992 163.327 49.626 163.869L48 165.495L43.326 160.821C46.7862 156.282 48.3924 150.598 47.8192 144.92C47.246 139.241 44.5363 133.993 40.2388 130.237C35.9414 126.482 30.3773 124.5 24.6733 124.692C18.9693 124.885 13.5516 127.238 9.5174 131.275C5.48319 135.312 3.13389 140.732 2.94523 146.436C2.75657 152.14 4.74265 157.703 8.50129 161.997C12.2599 166.292 17.5102 168.998 23.1891 169.567C28.8679 170.137 34.5508 168.526 39.087 165.063L43.758 169.737L42.126 171.369C41.5636 171.932 41.2476 172.695 41.2476 173.49C41.2476 174.285 41.5636 175.048 42.126 175.611ZM51.753 170.211L60.021 178.5L56.757 181.764L48.489 173.49L51.753 170.211ZM37.122 158.844C34.82 161.144 31.888 162.709 28.6965 163.343C25.505 163.976 22.1974 163.649 19.1916 162.403C16.1858 161.157 13.6169 159.048 11.8096 156.343C10.0023 153.637 9.03762 150.456 9.03762 147.202C9.03762 143.949 10.0023 140.768 11.8096 138.062C13.6169 135.357 16.1858 133.248 19.1916 132.002C22.1974 130.756 25.505 130.429 28.6965 131.062C31.888 131.696 34.82 133.261 37.122 135.561C38.6663 137.083 39.8927 138.896 40.7298 140.896C41.5669 142.896 41.998 145.042 41.998 147.21C41.998 149.378 41.5669 151.524 40.7298 153.524C39.8927 155.524 38.6663 157.337 37.122 158.859V158.844Z" fill="var(--fill-0, white)"/>
<path id="Vector_2" d="M177 147H173.382C175.579 145.26 177.18 142.878 177.963 140.187C178.746 137.495 178.671 134.627 177.75 131.98C176.828 129.333 175.106 127.038 172.821 125.414C170.537 123.79 167.803 122.917 165 122.917C162.197 122.917 159.463 123.79 157.179 125.414C154.894 127.038 153.172 129.333 152.25 131.98C151.329 134.627 151.254 137.495 152.037 140.187C152.82 142.878 154.421 145.26 156.618 147H153C149.817 147 146.765 148.264 144.515 150.515C142.264 152.765 141 155.817 141 159V186C141 186.796 141.316 187.559 141.879 188.121C142.441 188.684 143.204 189 144 189H186C186.796 189 187.559 188.684 188.121 188.121C188.684 187.559 189 186.796 189 186V159C189 155.817 187.736 152.765 185.485 150.515C183.235 148.264 180.183 147 177 147ZM165 129C166.483 129 167.933 129.44 169.167 130.264C170.4 131.088 171.361 132.259 171.929 133.63C172.497 135 172.645 136.508 172.356 137.963C172.066 139.418 171.352 140.754 170.303 141.803C169.254 142.852 167.918 143.566 166.463 143.856C165.008 144.145 163.5 143.997 162.13 143.429C160.759 142.861 159.588 141.9 158.764 140.667C157.94 139.433 157.5 137.983 157.5 136.5C157.5 134.511 158.29 132.603 159.697 131.197C161.103 129.79 163.011 129 165 129ZM183 183H147V159C147 157.409 147.632 155.883 148.757 154.757C149.883 153.632 151.409 153 153 153H177C178.591 153 180.117 153.632 181.243 154.757C182.368 155.883 183 157.409 183 159V183Z" fill="var(--fill-0, white)"/>
<path id="Vector_3" d="M39.843 41.862C30.2861 51.7442 23.5102 63.9762 20.2012 77.3195C16.8923 90.6628 17.1678 104.643 21 117.846L26.754 116.154C23.2226 103.97 22.9719 91.0689 26.0273 78.7567C29.0827 66.4444 35.3358 55.1576 44.154 46.038L39.843 41.862Z" fill="var(--fill-0, #FF6A29)"/>
<path id="Vector_4" d="M133.443 164.481L130.557 159.222C119.934 165.036 108.02 168.085 95.91 168.09C89.1204 168.103 82.364 167.144 75.846 165.243L74.154 171C81.2214 173.063 88.5477 174.104 95.91 174.09C109.029 174.085 121.936 170.781 133.443 164.481Z" fill="var(--fill-0, #FF6A29)"/>
<path id="Vector_5" d="M171.63 114.732C173.151 108.635 173.917 102.374 173.91 96.09C173.956 75.9474 166.156 56.5786 152.163 42.09L147.837 46.251C160.753 59.6227 167.953 77.4992 167.91 96.09C167.916 101.88 167.21 107.65 165.81 113.268L171.63 114.732Z" fill="var(--fill-0, #FF6A29)"/>
<path id="Vector_6" d="M78.867 128.676L80.322 127.848C82.0603 129.116 83.946 130.169 85.938 130.983V132.408C85.9562 133.907 86.5681 135.337 87.6394 136.386C88.7108 137.434 90.1542 138.014 91.653 138H100.353C101.852 138.014 103.295 137.434 104.367 136.386C105.438 135.337 106.05 133.907 106.068 132.408V130.98C108.043 130.199 109.891 129.127 111.549 127.8L113.139 128.676C114.441 129.389 115.966 129.576 117.401 129.199C118.837 128.823 120.074 127.911 120.858 126.651L125.211 119.451C125.595 118.818 125.846 118.113 125.949 117.38C126.052 116.646 126.005 115.9 125.811 115.185C125.615 114.455 125.273 113.773 124.805 113.18C124.338 112.587 123.754 112.095 123.09 111.735L121.758 111C122.015 109.008 122.015 106.992 121.758 105L123.093 104.262C123.757 103.902 124.341 103.41 124.808 102.817C125.276 102.224 125.618 101.542 125.814 100.812C126.009 100.097 126.056 99.3497 125.953 98.6158C125.85 97.8818 125.599 97.1766 125.214 96.543L120.867 89.343C120.085 88.0802 118.847 87.1659 117.411 86.7885C115.974 86.4112 114.447 86.5996 113.145 87.315L111.69 88.143C109.952 86.8746 108.066 85.8219 106.074 85.008V83.583C106.053 82.0837 105.439 80.6537 104.365 79.607C103.291 78.5603 101.846 77.9824 100.347 78H91.647C90.1507 77.9896 88.7112 78.572 87.6431 79.6198C86.575 80.6677 85.9652 82.0958 85.947 83.592V85.02C83.9717 85.8008 82.1242 86.8726 80.466 88.2L78.876 87.324C77.5742 86.6115 76.0491 86.4243 74.6136 86.8009C73.1782 87.1775 71.9414 88.0892 71.157 89.349L66.804 96.549C66.4201 97.1823 66.1689 97.887 66.0657 98.6204C65.9626 99.3537 66.0096 100.1 66.204 100.815C66.3996 101.545 66.7418 102.227 67.2096 102.82C67.6774 103.413 68.261 103.905 68.925 104.265L70.26 105.003C70.003 106.995 70.003 109.011 70.26 111.003L68.925 111.741C68.261 112.101 67.6774 112.593 67.2096 113.186C66.7418 113.779 66.3996 114.461 66.204 115.191C66.009 115.906 65.9617 116.653 66.0648 117.387C66.168 118.121 66.4195 118.826 66.804 119.46L71.151 126.66C71.9367 127.917 73.1737 128.827 74.6083 129.202C76.0429 129.576 77.5666 129.388 78.867 128.676ZM76.05 108C76.05 107.15 76.1122 106.3 76.236 105.459C76.3785 104.349 76.1816 103.223 75.6713 102.227C75.1609 101.232 74.3611 100.414 73.377 99.882L72.177 99.228L76.137 92.676L77.55 93.453C78.5353 93.9821 79.6507 94.2202 80.7662 94.1395C81.8817 94.0587 82.9512 93.6625 83.85 92.997C85.2132 91.9969 86.6969 91.1725 88.266 90.543C89.3289 90.1423 90.2462 89.4304 90.8981 88.5002C91.5499 87.57 91.9061 86.4648 91.92 85.329V84H100.044V85.329C100.058 86.4643 100.414 87.5691 101.065 88.4992C101.716 89.4293 102.633 90.1415 103.695 90.543C105.271 91.1724 106.762 91.9979 108.132 93C109.03 93.6663 110.1 94.0633 111.215 94.1445C112.331 94.2258 113.447 93.988 114.432 93.459L115.845 92.682L119.805 99.234L118.605 99.888C117.62 100.419 116.819 101.237 116.308 102.234C115.798 103.23 115.602 104.358 115.746 105.468C115.874 106.306 115.942 107.152 115.95 108C115.95 108.85 115.888 109.7 115.764 110.541C115.621 111.651 115.818 112.777 116.329 113.773C116.839 114.768 117.639 115.586 118.623 116.118L119.823 116.772L115.863 123.324L114.45 122.547C113.465 122.018 112.349 121.78 111.234 121.861C110.118 121.942 109.049 122.338 108.15 123.003C106.787 124.003 105.303 124.828 103.734 125.457C102.671 125.858 101.754 126.57 101.102 127.5C100.45 128.43 100.094 129.535 100.08 130.671V132H91.938V130.671C91.9239 129.536 91.568 128.431 90.9168 127.501C90.2655 126.571 89.3491 125.859 88.287 125.457C86.717 124.826 85.2323 124.001 83.868 123C82.9696 122.334 81.9002 121.937 80.7847 121.855C79.6691 121.774 78.5535 122.012 77.568 122.541L76.155 123.318L72.195 116.766L73.395 116.112C74.3804 115.581 75.1814 114.763 75.6919 113.766C76.2024 112.77 76.3984 111.642 76.254 110.532C76.1258 109.694 76.0576 108.848 76.05 108Z" fill="var(--fill-0, #FF6A29)"/>
<path id="Vector_7" d="M96 120C98.3734 120 100.693 119.296 102.667 117.978C104.64 116.659 106.178 114.785 107.087 112.592C107.995 110.399 108.232 107.987 107.769 105.659C107.306 103.331 106.164 101.193 104.485 99.5147C102.807 97.8365 100.669 96.6936 98.3411 96.2306C96.0133 95.7676 93.6005 96.0052 91.4078 96.9134C89.2151 97.8217 87.3409 99.3598 86.0224 101.333C84.7038 103.307 84 105.627 84 108C84 111.183 85.2643 114.235 87.5147 116.485C89.7652 118.736 92.8174 120 96 120ZM96 102C97.1867 102 98.3467 102.352 99.3334 103.011C100.32 103.67 101.089 104.608 101.543 105.704C101.997 106.8 102.116 108.007 101.885 109.171C101.653 110.334 101.082 111.404 100.243 112.243C99.4035 113.082 98.3344 113.653 97.1705 113.885C96.0067 114.116 94.8003 113.997 93.7039 113.543C92.6075 113.089 91.6705 112.32 91.0112 111.333C90.3519 110.347 90 109.187 90 108C90 106.409 90.6321 104.883 91.7574 103.757C92.8826 102.632 94.4087 102 96 102Z" fill="var(--fill-0, #FF6A29)"/>
<path id="Vector_8" d="M60 15H45V21H60V15Z" fill="var(--fill-0, white)"/>
<path id="Vector_9" d="M66 27H51V33H66V27Z" fill="var(--fill-0, white)"/>
<path id="Vector_10" d="M125.343 13.125C125.062 12.7738 124.705 12.4903 124.3 12.2956C123.894 12.1009 123.45 11.9998 123 12H108V6C108 5.20435 107.684 4.44129 107.121 3.87868C106.559 3.31607 105.796 3 105 3H57C56.2044 3 55.4413 3.31607 54.8787 3.87868C54.3161 4.44129 54 5.20435 54 6V12H60V9H102V54H83.448C82.8371 52.2464 81.6955 50.7263 80.1818 49.6507C78.668 48.5751 76.857 47.9972 75 47.9972C73.143 47.9972 71.332 48.5751 69.8182 49.6507C68.3045 50.7263 67.1629 52.2464 66.552 54H60V36H54V57C54 57.7956 54.3161 58.5587 54.8787 59.1213C55.4413 59.6839 56.2044 60 57 60H66.552C67.1629 61.7536 68.3045 63.2737 69.8182 64.3493C71.332 65.4249 73.143 66.0028 75 66.0028C76.857 66.0028 78.668 65.4249 80.1818 64.3493C81.6955 63.2737 82.8371 61.7536 83.448 60H111.552C112.163 61.7536 113.304 63.2737 114.818 64.3493C116.332 65.4249 118.143 66.0028 120 66.0028C121.857 66.0028 123.668 65.4249 125.182 64.3493C126.696 63.2737 127.837 61.7536 128.448 60H135C135.796 60 136.559 59.6839 137.121 59.1213C137.684 58.5587 138 57.7956 138 57V30C138 29.3185 137.769 28.6572 137.343 28.125L125.343 13.125ZM75 60C74.4067 60 73.8266 59.8241 73.3333 59.4944C72.8399 59.1648 72.4554 58.6962 72.2284 58.148C72.0013 57.5999 71.9419 56.9967 72.0576 56.4147C72.1734 55.8328 72.4591 55.2982 72.8787 54.8787C73.2982 54.4591 73.8328 54.1734 74.4147 54.0576C74.9967 53.9419 75.5999 54.0013 76.148 54.2284C76.6962 54.4554 77.1648 54.8399 77.4944 55.3333C77.8241 55.8266 78 56.4067 78 57C78 57.7956 77.6839 58.5587 77.1213 59.1213C76.5587 59.6839 75.7956 60 75 60ZM117 18H121.56L128.76 27H117V18ZM120 60C119.407 60 118.827 59.8241 118.333 59.4944C117.84 59.1648 117.455 58.6962 117.228 58.148C117.001 57.5999 116.942 56.9967 117.058 56.4147C117.173 55.8328 117.459 55.2982 117.879 54.8787C118.298 54.4591 118.833 54.1734 119.415 54.0576C119.997 53.9419 120.6 54.0013 121.148 54.2284C121.696 54.4554 122.165 54.8399 122.494 55.3333C122.824 55.8266 123 56.4067 123 57C123 57.7956 122.684 58.5587 122.121 59.1213C121.559 59.6839 120.796 60 120 60ZM132 54H128.448C127.837 52.2464 126.696 50.7263 125.182 49.6507C123.668 48.5751 121.857 47.9972 120 47.9972C118.143 47.9972 116.332 48.5751 114.818 49.6507C113.304 50.7263 112.163 52.2464 111.552 54H108V18H111V30C111 30.7956 111.316 31.5587 111.879 32.1213C112.441 32.6839 113.204 33 114 33H132V54Z" fill="var(--fill-0, white)"/>
</g>
</svg>
