<svg preserveAspectRatio="none" width="100%" height="100%" overflow="visible" style="display: block;" viewBox="0 0 162 162" fill="none" xmlns="http://www.w3.org/2000/svg">
<g id="fi_9257186">
<path id="Vector" d="M156.938 136.688H151.875V68.3437C151.875 64.9871 150.542 61.7679 148.168 59.3944C145.795 57.0209 142.575 55.6875 139.219 55.6875H75.9375C75.5689 55.6935 75.2061 55.7798 74.8744 55.9406C71.6822 54.1467 68.0821 53.2044 64.4203 53.2044C60.7586 53.2044 57.1584 54.1467 53.9662 55.9406C53.7124 55.8113 53.4386 55.7257 53.1562 55.6875H22.7812C19.4246 55.6875 16.2054 57.0209 13.8319 59.3944C11.4584 61.7679 10.125 64.9871 10.125 68.3437V136.688H5.0625C4.39117 136.688 3.74734 136.954 3.27264 137.429C2.79793 137.904 2.53125 138.547 2.53125 139.219V144.281C2.53125 146.967 3.59799 149.542 5.49679 151.441C7.3956 153.34 9.97093 154.406 12.6562 154.406H149.344C152.029 154.406 154.604 153.34 156.503 151.441C158.402 149.542 159.469 146.967 159.469 144.281V139.219C159.469 138.547 159.202 137.904 158.727 137.429C158.253 136.954 157.609 136.688 156.938 136.688ZM80.6709 74.4187C80.6709 85.2525 73.0772 98.4909 64.3697 98.4909C55.6622 98.4909 48.0938 85.2525 48.0938 74.4187C48.0938 70.092 49.8125 65.9425 52.872 62.8831C55.9314 59.8236 60.0809 58.1048 64.4077 58.1048C68.7344 58.1048 72.8839 59.8236 75.9433 62.8831C79.0028 65.9425 80.7216 70.092 80.7216 74.4187H80.6709ZM85.7334 74.4187C85.7238 73.2303 85.6137 72.0449 85.4044 70.875H101.503C102.107 70.875 102.687 71.115 103.114 71.5422C103.541 71.9695 103.781 72.5489 103.781 73.1531V124.284C103.781 124.889 103.541 125.468 103.114 125.895C102.687 126.322 102.107 126.562 101.503 126.562H101.25V122.867C101.25 108.667 88.3659 104.591 80.6962 102.161C79.1386 101.712 77.6087 101.171 76.1147 100.541C75.5693 100.293 75.0722 99.9505 74.6466 99.5287C78.1203 96.3294 80.8976 92.4486 82.8051 88.1284C84.7126 83.8082 85.7094 79.1413 85.7334 74.4187ZM32.9062 126.562V122.867C32.9062 113.501 40.1709 110.211 49.0809 107.35C50.625 110.894 54.5737 116.437 64.5469 116.437C74.52 116.437 78.5953 110.692 80.0381 107.274C88.9481 110.135 96.1875 113.476 96.1875 122.867V126.562H32.9062ZM27.5906 126.562C27.2915 126.562 26.9952 126.504 26.7188 126.389C26.4424 126.275 26.1913 126.107 25.9797 125.895C25.7682 125.684 25.6004 125.433 25.4859 125.156C25.3714 124.88 25.3125 124.584 25.3125 124.284V73.1531C25.3125 72.854 25.3714 72.5577 25.4859 72.2813C25.6004 72.0049 25.7682 71.7538 25.9797 71.5422C26.1913 71.3307 26.4424 71.1629 26.7188 71.0484C26.9952 70.9339 27.2915 70.875 27.5906 70.875H43.3097C43.1173 72.0463 43.0241 73.2318 43.0312 74.4187C43.0436 79.1895 44.0519 83.9052 45.9915 88.2639C47.9312 92.6226 50.7594 96.5284 54.2953 99.7313C53.8824 100.097 53.4328 100.419 52.9538 100.693C51.3822 101.381 49.7671 101.964 48.1191 102.44C40.5253 104.971 27.8691 108.945 27.8691 122.943V126.562H27.5906ZM70.2169 102.237C71.2168 103.502 72.5119 104.501 73.9884 105.148C74.3681 105.325 74.7984 105.477 75.2287 105.629C74.0391 108.16 71.2294 111.375 64.5469 111.375C57.8644 111.375 55.0547 108.211 53.865 105.629C54.3206 105.452 54.8269 105.275 55.2319 105.047C56.5357 104.341 57.7086 103.416 58.6997 102.313C60.5065 103.141 62.4707 103.57 64.4583 103.57C66.4459 103.57 68.4101 103.141 70.2169 102.313V102.237ZM15.1875 68.3437C15.1875 66.3298 15.9876 64.3983 17.4117 62.9742C18.8358 61.5501 20.7673 60.75 22.7812 60.75H48.0938C46.7973 62.2787 45.7236 63.9831 44.9044 65.8125H27.5906C25.6458 65.8192 23.7826 66.5947 22.4074 67.9699C21.0322 69.3451 20.2567 71.2083 20.25 73.1531V124.284C20.2567 126.229 21.0322 128.092 22.4074 129.468C23.7826 130.843 25.6458 131.618 27.5906 131.625H101.503C103.448 131.618 105.311 130.843 106.686 129.468C108.062 128.092 108.837 126.229 108.844 124.284V73.1531C108.837 71.2083 108.062 69.3451 106.686 67.9699C105.311 66.5947 103.448 65.8192 101.503 65.8125H83.7844C82.9652 63.9831 81.8914 62.2787 80.595 60.75H139.219C141.233 60.75 143.164 61.5501 144.588 62.9742C146.012 64.3983 146.812 66.3298 146.812 68.3437V136.688H15.1875V68.3437ZM154.406 144.281C154.406 145.624 153.873 146.912 152.923 147.861C151.974 148.81 150.686 149.344 149.344 149.344H12.6562C11.3136 149.344 10.0259 148.81 9.07652 147.861C8.12712 146.912 7.59375 145.624 7.59375 144.281V141.75H154.406V144.281Z" fill="var(--fill-0, white)"/>
<path id="Vector_2" d="M134.409 65.8125H121.247C119.302 65.8192 117.439 66.5947 116.064 67.9699C114.688 69.3451 113.913 71.2083 113.906 73.1531V96.4406C113.913 98.3854 114.688 100.249 116.064 101.624C117.439 102.999 119.302 103.775 121.247 103.781H134.409C136.354 103.775 138.217 102.999 139.593 101.624C140.968 100.249 141.743 98.3854 141.75 96.4406V73.1531C141.743 71.2083 140.968 69.3451 139.593 67.9699C138.217 66.5947 136.354 65.8192 134.409 65.8125ZM136.688 96.4406C136.688 97.0448 136.447 97.6243 136.02 98.0515C135.593 98.4787 135.014 98.7188 134.409 98.7188H121.247C120.643 98.7188 120.063 98.4787 119.636 98.0515C119.209 97.6243 118.969 97.0448 118.969 96.4406V73.1531C118.969 72.5489 119.209 71.9695 119.636 71.5422C120.063 71.115 120.643 70.875 121.247 70.875H134.409C135.014 70.875 135.593 71.115 136.02 71.5422C136.447 71.9695 136.687 72.5489 136.688 73.1531V96.4406Z" fill="var(--fill-0, white)"/>
<path id="Vector_3" d="M119.095 30.375C120.493 30.375 121.627 29.2417 121.627 27.8438C121.627 26.4458 120.493 25.3125 119.095 25.3125C117.697 25.3125 116.564 26.4458 116.564 27.8438C116.564 29.2417 117.697 30.375 119.095 30.375Z" fill="var(--fill-0, #FF6A29)"/>
<path id="Vector_4" d="M75.9375 30.375H86.0625V32.9062C86.0625 34.9202 86.8626 36.8517 88.2867 38.2758C89.7108 39.6999 91.6423 40.5 93.6562 40.5H96.1875V45.5625C96.1875 46.0326 96.3184 46.4934 96.5655 46.8933C96.8127 47.2931 97.1663 47.6163 97.5867 47.8265C98.0072 48.0367 98.4779 48.1257 98.9461 48.0835C99.4143 48.0413 99.8614 47.8695 100.237 47.5875L109.679 40.5H124.031C126.045 40.5 127.977 39.6999 129.401 38.2758C130.825 36.8517 131.625 34.9202 131.625 32.9062V22.7812C131.625 20.7673 130.825 18.8358 129.401 17.4117C127.977 15.9876 126.045 15.1875 124.031 15.1875H113.906V12.6562C113.906 10.6423 113.106 8.71076 111.682 7.28666C110.258 5.86255 108.326 5.0625 106.312 5.0625H75.9375C73.9235 5.0625 71.992 5.86255 70.5679 7.28666C69.1438 8.71076 68.3438 10.6423 68.3438 12.6562V22.7812C68.3438 24.7952 69.1438 26.7267 70.5679 28.1508C71.992 29.5749 73.9235 30.375 75.9375 30.375ZM113.906 20.25H124.031C124.703 20.25 125.346 20.5167 125.821 20.9914C126.296 21.4661 126.562 22.1099 126.562 22.7812V32.9062C126.562 33.5776 126.296 34.2214 125.821 34.6961C125.346 35.1708 124.703 35.4375 124.031 35.4375H108.844C108.296 35.4375 107.763 35.6151 107.325 35.9437L101.25 40.5V37.9688C101.25 37.2974 100.983 36.6536 100.509 36.1789C100.034 35.7042 99.3901 35.4375 98.7188 35.4375H93.6562C92.9849 35.4375 92.3411 35.1708 91.8664 34.6961C91.3917 34.2214 91.125 33.5776 91.125 32.9062V30.375H106.312C108.326 30.375 110.258 29.5749 111.682 28.1508C113.106 26.7267 113.906 24.7952 113.906 22.7812V20.25ZM73.4062 12.6562C73.4062 11.9849 73.6729 11.3411 74.1476 10.8664C74.6223 10.3917 75.2662 10.125 75.9375 10.125H106.312C106.984 10.125 107.628 10.3917 108.102 10.8664C108.577 11.3411 108.844 11.9849 108.844 12.6562V22.7812C108.844 23.4526 108.577 24.0964 108.102 24.5711C107.628 25.0458 106.984 25.3125 106.312 25.3125H75.9375C75.2662 25.3125 74.6223 25.0458 74.1476 24.5711C73.6729 24.0964 73.4062 23.4526 73.4062 22.7812V12.6562Z" fill="var(--fill-0, #FF6A29)"/>
<path id="Vector_5" d="M81 20.25C82.398 20.25 83.5312 19.1167 83.5312 17.7188C83.5312 16.3208 82.398 15.1875 81 15.1875C79.602 15.1875 78.4688 16.3208 78.4688 17.7188C78.4688 19.1167 79.602 20.25 81 20.25Z" fill="var(--fill-0, #FF6A29)"/>
<path id="Vector_6" d="M91.125 20.25C92.523 20.25 93.6562 19.1167 93.6562 17.7188C93.6562 16.3208 92.523 15.1875 91.125 15.1875C89.727 15.1875 88.5938 16.3208 88.5938 17.7188C88.5938 19.1167 89.727 20.25 91.125 20.25Z" fill="var(--fill-0, #FF6A29)"/>
<path id="Vector_7" d="M101.25 20.25C102.648 20.25 103.781 19.1167 103.781 17.7188C103.781 16.3208 102.648 15.1875 101.25 15.1875C99.852 15.1875 98.7188 16.3208 98.7188 17.7188C98.7188 19.1167 99.852 20.25 101.25 20.25Z" fill="var(--fill-0, #FF6A29)"/>
<path id="Vector_8" d="M116.438 113.906H124.031C124.703 113.906 125.346 113.64 125.821 113.165C126.296 112.69 126.562 112.046 126.562 111.375C126.562 110.704 126.296 110.06 125.821 109.585C125.346 109.11 124.703 108.844 124.031 108.844H116.438C115.766 108.844 115.122 109.11 114.648 109.585C114.173 110.06 113.906 110.704 113.906 111.375C113.906 112.046 114.173 112.69 114.648 113.165C115.122 113.64 115.766 113.906 116.438 113.906Z" fill="var(--fill-0, white)"/>
<path id="Vector_9" d="M131.625 118.969H116.438C115.766 118.969 115.122 119.235 114.648 119.71C114.173 120.185 113.906 120.829 113.906 121.5C113.906 122.171 114.173 122.815 114.648 123.29C115.122 123.765 115.766 124.031 116.438 124.031H131.625C132.296 124.031 132.94 123.765 133.415 123.29C133.89 122.815 134.156 122.171 134.156 121.5C134.156 120.829 133.89 120.185 133.415 119.71C132.94 119.235 132.296 118.969 131.625 118.969Z" fill="var(--fill-0, white)"/>
</g>
</svg>
