<svg preserveAspectRatio="none" width="100%" height="100%" overflow="visible" style="display: block;" viewBox="0 0 181 181" fill="none" xmlns="http://www.w3.org/2000/svg">
<g id="fi_1320521" clip-path="url(#clip0_0_67)">
<path id="Vector" d="M87.4454 69.0143C88.6247 70.1342 90.5856 69.9077 91.4819 68.5558L109.129 41.9234C109.938 40.7026 109.604 39.0566 108.383 38.2473C107.164 37.4395 105.518 37.7737 104.708 38.993L88.8056 62.9934L79.9691 54.603C78.9072 53.5949 77.2294 53.6391 76.2199 54.701C75.2118 55.7629 75.256 57.4408 76.318 58.4488C76.3166 58.4488 87.4358 69.006 87.4454 69.0143Z" fill="var(--fill-0, #FF6A29)"/>
<path id="Vector_2" d="M89.2544 109.455C89.7612 109.687 90.3219 109.809 90.8798 109.809H90.9019C91.4694 109.807 92.0384 109.677 92.5466 109.434C132.864 90.2597 139.697 48.8901 140.829 36.6676C141.089 33.8767 139.517 31.2778 136.92 30.2007C128.894 26.8686 123.438 19.4171 122.681 10.7546C122.448 8.08804 120.169 6.00975 117.485 6.00975H117.453L63.1357 6.32875C60.3973 6.34394 58.1727 8.42498 57.9628 11.1689C57.2944 19.8342 51.9185 27.3395 43.9326 30.7559C41.3613 31.8551 39.8285 34.4678 40.1213 37.2572C41.3972 49.4659 48.7147 90.7541 89.2544 109.455ZM46.0178 35.6305C55.8099 31.4436 62.4066 22.2508 63.2448 11.6301L117.406 11.3125C118.368 21.9097 125.059 31.0182 134.887 35.0975C135.326 35.2811 135.593 35.7147 135.55 36.1787C134.486 47.6335 128.125 86.2564 90.8701 104.356C53.4016 86.697 46.5923 48.1486 45.3936 36.7062C45.3453 36.2436 45.5966 35.8114 46.0178 35.6305Z" fill="var(--fill-0, #FF6A29)"/>
<path id="Vector_3" d="M52.6379 50.329C52.9583 51.5083 54.4538 52.5882 55.8928 52.1919C57.3041 51.8025 58.1395 50.3511 57.7556 48.9384C57.0804 46.45 56.5128 43.9271 56.0668 41.4276C63.2696 36.7339 68.6152 29.7284 71.2376 21.5465L109.528 21.3214C112.245 29.4702 117.672 36.4149 124.931 41.023C124.515 43.5294 123.976 46.0606 123.329 48.5587C122.961 49.9769 123.813 51.4241 125.23 51.7914C126.65 52.1587 128.096 51.3067 128.463 49.8885C129.222 46.9554 129.841 43.9782 130.3 41.0396C130.556 39.3977 129.805 37.7834 128.388 36.9272C121.627 32.8438 116.63 26.4377 114.317 18.8896C113.796 17.1924 112.196 16.0131 110.42 16.0131H110.395L70.3068 16.2479C68.5199 16.2589 66.9208 17.4617 66.4195 19.1713C64.1962 26.7457 59.2733 33.2097 52.5606 37.3732C51.1534 38.2446 50.4229 39.8672 50.6977 41.5077C51.1921 44.4394 51.8439 47.407 52.6379 50.329Z" fill="var(--fill-0, #FF6A29)"/>
<path id="Vector_4" d="M123.104 58.1906C121.75 57.6299 120.201 58.2762 119.642 59.6295C113.514 74.4799 103.815 85.7704 90.8038 93.2011C77.692 85.914 67.8515 74.7188 61.5518 59.9154C60.9773 58.569 59.4196 57.942 58.0732 58.5151C56.7255 59.0882 56.0985 60.6459 56.6716 61.9923C63.5472 78.1463 74.3791 90.3246 88.8664 98.1862C89.4768 98.519 90.1451 98.6833 90.8121 98.6833C91.4957 98.6833 92.1778 98.5107 92.7992 98.1641C107.177 90.1423 117.857 77.8577 124.544 61.6512C125.103 60.2979 124.458 58.7485 123.104 58.1906Z" fill="var(--fill-0, #FF6A29)"/>
<path id="Vector_5" d="M17.0116 141.68C11.84 141.68 7.63097 145.887 7.63097 151.06C7.63097 156.233 11.84 160.441 17.0116 160.441C22.1845 160.441 26.3935 156.233 26.3935 151.06C26.3935 145.887 22.1859 141.68 17.0116 141.68ZM17.0116 155.138C14.7634 155.138 12.9337 153.31 12.9337 151.06C12.9337 148.812 14.7634 146.982 17.0116 146.982C19.2611 146.982 21.0908 148.812 21.0908 151.06C21.0908 153.31 19.2611 155.138 17.0116 155.138Z" fill="var(--fill-0, white)"/>
<path id="Vector_6" d="M179.099 115.723C175.7 110.729 168.858 109.406 163.846 112.773L129.185 135.971L121.786 135.555L121.597 133.661C120.86 126.241 115.188 120.329 107.806 119.285C107.759 119.278 107.713 119.273 107.666 119.269L70.3179 115.996C69.0543 115.798 65.0096 114.637 53.896 108.263C48.1196 104.95 41.6113 103.08 34.9994 102.826V95.8897C34.9994 92.4084 32.1686 89.5776 28.6873 89.5776H6.31219C2.83227 89.5776 2.39626e-06 92.4098 2.39626e-06 95.8897V164.205C2.39626e-06 167.685 2.83227 170.517 6.31219 170.517H28.6873C32.1672 170.517 34.9994 167.685 34.9994 164.205V162.323L67.6472 174.686C67.719 174.714 70.3703 175.706 75.245 175.246C75.2588 175.244 129.492 167.426 129.492 167.426C129.506 167.424 129.518 167.421 129.532 167.419C134.166 166.68 138.537 164.72 142.173 161.756C142.206 161.728 142.238 161.7 142.269 161.673L177.305 130.161C181.434 126.495 182.206 120.288 179.099 115.723ZM173.771 126.208L138.773 157.686C135.876 160.035 132.399 161.588 128.714 162.179L74.5076 169.994C74.4952 169.995 74.4772 169.998 74.4606 170.001C74.4523 170.002 74.4427 170.004 74.4344 170.005C72.8132 170.261 71.1243 170.153 69.4134 169.685L34.9994 156.653V126.374C34.9994 124.908 33.8118 123.722 32.3481 123.722C30.8829 123.722 29.6967 124.908 29.6967 126.374V164.205C29.6967 164.762 29.2438 165.215 28.6873 165.215H6.31219C5.75568 165.215 5.30274 164.762 5.30274 164.205V95.8897C5.30274 95.3332 5.75568 94.8803 6.31219 94.8803H28.6873C29.2438 94.8803 29.6967 95.3332 29.6967 95.8897V114.397C29.6967 115.862 30.8843 117.048 32.3481 117.048C33.8132 117.048 34.9994 115.861 34.9994 114.397V108.134C40.6875 108.386 46.2829 110.01 51.257 112.864C64.6616 120.552 68.4053 121.082 69.6357 121.256C69.6826 121.263 69.7282 121.267 69.7752 121.272L107.128 124.545C112.052 125.273 115.827 129.228 116.32 134.185L116.461 135.598L66.4541 138.686C66.4195 138.683 66.385 138.68 66.3546 138.678C64.7334 138.531 63.2696 137.765 62.2298 136.519C61.2922 135.394 59.6199 135.242 58.4958 136.181C57.3704 137.119 57.2185 138.791 58.1575 139.915C60.1032 142.249 62.8485 143.645 65.8824 143.96C67.5201 144.131 119.378 140.731 119.378 140.731L129.773 141.315C130.348 141.348 130.918 141.191 131.396 140.87L166.8 117.177C169.4 115.43 172.951 116.115 174.714 118.705C176.326 121.075 175.925 124.295 173.771 126.208Z" fill="var(--fill-0, white)"/>
</g>
<defs>
<clipPath id="clip0_0_67">
<rect width="181" height="181" fill="white"/>
</clipPath>
</defs>
</svg>
