<svg preserveAspectRatio="none" width="100%" height="100%" overflow="visible" style="display: block;" viewBox="0 0 176 143.003" fill="none" xmlns="http://www.w3.org/2000/svg">
<g id="Group">
<path id="Vector" d="M46.8044 120.754H46.7948C44.8962 120.754 43.3624 122.293 43.3624 124.191C43.3624 126.089 44.9062 127.629 46.8047 127.629C48.7033 127.629 50.2422 126.09 50.2422 124.191C50.2419 122.293 48.7029 120.754 46.8044 120.754Z" fill="var(--fill-0, white)"/>
<path id="Vector_2" d="M171.021 111.689V83.7059C171.021 83.2762 170.937 82.8379 170.779 82.4385L154.371 41.0768C153.851 39.7671 152.585 38.907 151.176 38.907H123.873V25.4193C123.873 23.5211 122.334 21.9818 120.435 21.9818H84.7699C82.8885 18.896 80.628 16.0119 78.0073 13.3911C71.3815 6.76537 63.0246 2.3884 53.8399 0.733242C44.8677 -0.883758 35.725 0.185306 27.4018 3.82527C25.6624 4.58599 24.869 6.6124 25.6297 8.35177C26.3905 10.0908 28.4172 10.8849 30.1562 10.1238C44.8904 3.68056 61.7647 6.87056 73.146 18.2525C80.4795 25.586 84.5182 35.3351 84.5182 45.7043C84.5182 56.0729 80.4799 65.8192 73.1453 73.1497C65.8165 80.4829 56.0705 84.5216 45.702 84.5216C35.3335 84.5216 25.5844 80.4826 18.2508 73.149C6.88609 61.7846 3.68887 44.9189 10.1053 30.1826C10.8633 28.4422 10.0665 26.4165 8.32606 25.6586C6.58634 24.9016 4.56027 25.6974 3.80231 27.4381C0.177806 35.7621 -0.881975 44.8993 0.737087 53.8622C2.33002 62.6801 6.43715 70.729 12.6267 77.218V111.689C9.69556 113.006 7.64784 115.951 7.64784 119.368V123.84C7.64784 128.481 11.4232 132.256 16.0639 132.256H29.8121C32.8375 138.605 39.3162 143.003 46.8044 143.003C54.2885 143.003 60.7641 138.605 63.7877 132.256H115.144C118.168 138.605 124.643 143.003 132.127 143.003C139.616 143.003 146.094 138.605 149.12 132.256H167.584C172.224 132.256 176 128.481 176 123.84V119.368C176 115.951 173.953 113.006 171.021 111.689ZM155.227 61.8781L162.522 80.2687H125.208V61.8781H155.227ZM148.842 45.7817L152.5 55.0031H121.77C119.872 55.0031 118.333 56.5421 118.333 58.4406V83.7059C118.333 85.6041 119.872 87.1434 121.77 87.1434H164.147V95.6151H159.477C157.579 95.6151 156.04 97.1541 156.04 99.0526C156.04 100.951 157.579 102.49 159.477 102.49H164.147V110.952H145.472C142.061 107.518 137.339 105.388 132.128 105.388C126.919 105.388 122.199 107.518 118.79 110.952H107.241V45.7817H148.842ZM28.0336 125.382H16.0639C15.2282 125.382 14.5225 124.676 14.5225 123.84V119.368C14.5225 118.532 15.2286 117.827 16.0639 117.827H29.1037C28.3856 119.815 27.992 121.958 27.992 124.191C27.992 124.592 28.0088 124.988 28.0336 125.382ZM46.8044 136.129C40.2219 136.129 34.8666 130.774 34.8666 124.191C34.8666 117.614 40.2219 112.263 46.8044 112.263C53.3817 112.263 58.7325 117.614 58.7325 124.191C58.7325 130.774 53.3817 136.129 46.8044 136.129ZM60.1416 110.952C56.7329 107.518 52.0132 105.388 46.8044 105.388C41.5928 105.388 36.8707 107.518 33.4604 110.952H19.5014V83.1511C27.1254 88.5095 36.1922 91.3963 45.7023 91.3963C57.9075 91.3963 69.3809 86.6419 78.0066 78.011C86.6388 69.3832 91.3929 57.9102 91.3929 45.7043C91.3929 39.8417 90.2932 34.1481 88.1964 28.8565H116.998V38.9067H103.803C101.904 38.9067 100.365 40.4456 100.365 42.3442V110.951H60.1416V110.952ZM65.5656 125.382C65.5903 124.988 65.6072 124.592 65.6072 124.191C65.6072 121.958 65.2139 119.815 64.4962 117.826H114.436C113.718 119.815 113.325 121.958 113.325 124.191C113.325 124.592 113.342 124.988 113.366 125.382H65.5656ZM132.128 136.129C125.55 136.129 120.199 130.774 120.199 124.191C120.199 117.614 125.55 112.263 132.128 112.263C135.799 112.263 139.086 113.928 141.278 116.541C141.303 116.571 141.328 116.6 141.353 116.63C143.047 118.689 144.065 121.323 144.065 124.191C144.065 130.774 138.71 136.129 132.128 136.129ZM169.125 123.84C169.125 124.676 168.419 125.382 167.584 125.382H150.898C150.923 124.988 150.94 124.592 150.94 124.191C150.94 121.958 150.546 119.815 149.828 117.826H167.584C168.419 117.826 169.125 118.532 169.125 119.368V123.84H169.125Z" fill="var(--fill-0, white)"/>
<path id="Vector_3" d="M45.7034 77.4098C63.1844 77.4098 77.4064 63.1878 77.4064 45.7061C77.4064 28.2191 63.1844 13.9924 45.7034 13.9924C28.2168 13.9924 13.9907 28.2191 13.9907 45.7061C13.9907 63.1875 28.2168 77.4098 45.7034 77.4098ZM45.7034 20.867C59.3939 20.867 70.5317 32.0097 70.5317 45.7061C70.5317 59.3969 59.3939 70.5351 45.7034 70.5351C32.0077 70.5351 20.8654 59.3969 20.8654 45.7061C20.8654 32.0093 32.0077 20.867 45.7034 20.867Z" fill="var(--fill-0, #FF6A29)"/>
<path id="Vector_4" d="M45.7034 49.1432H55.6319C57.5304 49.1432 59.0694 47.6042 59.0694 45.7057C59.0694 43.8075 57.5304 42.2682 55.6319 42.2682H49.1405V31.4019C49.1405 29.5037 47.6016 27.9644 45.703 27.9644C43.8045 27.9644 42.2655 29.5034 42.2655 31.4019V45.7057C42.2659 47.6042 43.8048 49.1432 45.7034 49.1432Z" fill="var(--fill-0, #FF6A29)"/>
<path id="Vector_5" d="M15.8105 19.2689C16.6902 19.2689 17.5698 18.9331 18.2412 18.2621L18.2508 18.2525C19.5931 16.9101 19.588 14.7386 18.246 13.3963C16.9036 12.0543 14.7226 12.0588 13.3799 13.4011C12.0375 14.7435 12.0375 16.9201 13.3799 18.2624C14.0512 18.9334 14.9309 19.2689 15.8105 19.2689Z" fill="var(--fill-0, #FF6A29)"/>
</g>
</svg>
