<svg preserveAspectRatio="none" width="100%" height="100%" overflow="visible" style="display: block;" viewBox="0 0 34.0417 39.4167" fill="none" xmlns="http://www.w3.org/2000/svg">
<g id="Group">
<path id="Vector" d="M30.53 14.3333H29.5625V12.5417C29.5625 9.21541 28.2411 6.02539 25.8891 3.67337C23.5371 1.32135 20.3471 0 17.0208 0C13.6946 0 10.5046 1.32135 8.15253 3.67337C5.80052 6.02539 4.47917 9.21541 4.47917 12.5417V14.3333H3.51167C2.58061 14.3343 1.68795 14.7046 1.02959 15.3629C0.371231 16.0213 0.000948611 16.9139 0 17.845V35.905C0.000948611 36.8361 0.371231 37.7287 1.02959 38.3871C1.68795 39.0454 2.58061 39.4157 3.51167 39.4167H30.53C31.4611 39.4157 32.3537 39.0454 33.0121 38.3871C33.6704 37.7287 34.0407 36.8361 34.0417 35.905V17.845C34.0407 16.9139 33.6704 16.0213 33.0121 15.3629C32.3537 14.7046 31.4611 14.3343 30.53 14.3333ZM6.27083 12.5417C6.27083 9.69059 7.40342 6.95628 9.41943 4.94027C11.4355 2.92425 14.1698 1.79167 17.0208 1.79167C19.8719 1.79167 22.6062 2.92425 24.6222 4.94027C26.6382 6.95628 27.7708 9.69059 27.7708 12.5417V14.3333H24.1875V12.5417C24.1875 10.6409 23.4324 8.81808 22.0884 7.47407C20.7444 6.13006 18.9215 5.375 17.0208 5.375C15.1201 5.375 13.2972 6.13006 11.9532 7.47407C10.6092 8.81808 9.85417 10.6409 9.85417 12.5417V14.3333H6.27083V12.5417ZM22.3958 14.3333H11.6458V12.5417C11.6458 11.1161 12.2121 9.74898 13.2201 8.74097C14.2281 7.73296 15.5953 7.16667 17.0208 7.16667C18.4439 7.17466 19.8064 7.74352 20.8127 8.7498C21.819 9.75608 22.3878 11.1186 22.3958 12.5417V14.3333ZM32.25 35.905C32.2524 36.1315 32.2095 36.3563 32.124 36.566C32.0384 36.7758 31.9118 36.9664 31.7516 37.1266C31.5914 37.2868 31.4008 37.4134 31.191 37.499C30.9813 37.5845 30.7565 37.6274 30.53 37.625H3.51167C3.28513 37.6274 3.06039 37.5845 2.85063 37.499C2.64086 37.4134 2.4503 37.2868 2.2901 37.1266C2.1299 36.9664 2.0033 36.7758 1.91771 36.566C1.83212 36.3563 1.78927 36.1315 1.79167 35.905V17.845C1.78927 17.6185 1.83212 17.3937 1.91771 17.184C2.0033 16.9742 2.1299 16.7836 2.2901 16.6234C2.4503 16.4632 2.64086 16.3366 2.85063 16.251C3.06039 16.1655 3.28513 16.1226 3.51167 16.125H30.53C30.7565 16.1226 30.9813 16.1655 31.191 16.251C31.4008 16.3366 31.5914 16.4632 31.7516 16.6234C31.9118 16.7836 32.0384 16.9742 32.124 17.184C32.2095 17.3937 32.2524 17.6185 32.25 17.845V35.905Z" fill="var(--fill-0, white)"/>
<path id="Vector_2" d="M17.0208 19.7083C15.8329 19.7083 14.6936 20.1802 13.8536 21.0203C13.0136 21.8603 12.5417 22.9996 12.5417 24.1875C12.5383 24.8835 12.6987 25.5704 13.01 26.1929C13.3212 26.8154 13.7745 27.356 14.3333 27.7708V31.3542C14.3333 32.0669 14.6165 32.7505 15.1205 33.2545C15.6245 33.7585 16.3081 34.0417 17.0208 34.0417C17.7336 34.0417 18.4172 33.7585 18.9212 33.2545C19.4252 32.7505 19.7083 32.0669 19.7083 31.3542V27.7708C20.2671 27.356 20.7205 26.8154 21.0317 26.1929C21.343 25.5704 21.5034 24.8835 21.5 24.1875C21.5 22.9996 21.0281 21.8603 20.1881 21.0203C19.3481 20.1802 18.2088 19.7083 17.0208 19.7083ZM18.361 26.5167C18.2257 26.5956 18.1135 26.7086 18.0356 26.8444C17.9576 26.9802 17.9166 27.1341 17.9167 27.2907V31.3542C17.9167 31.5918 17.8223 31.8196 17.6543 31.9876C17.4863 32.1556 17.2584 32.25 17.0208 32.25C16.7832 32.25 16.5554 32.1556 16.3874 31.9876C16.2194 31.8196 16.125 31.5918 16.125 31.3542V27.2871C16.125 27.1305 16.084 26.9766 16.0061 26.8408C15.9281 26.705 15.8159 26.592 15.6807 26.5131C15.1683 26.2173 14.7679 25.7607 14.5415 25.2141C14.3151 24.6675 14.2754 24.0615 14.4285 23.4901C14.5816 22.9186 14.919 22.4137 15.3884 22.0535C15.8577 21.6934 16.4328 21.4981 17.0244 21.4981C17.616 21.4981 18.1911 21.6934 18.6605 22.0535C19.1298 22.4137 19.4672 22.9186 19.6203 23.4901C19.7735 24.0615 19.7337 24.6675 19.5073 25.2141C19.2809 25.7607 18.8805 26.2173 18.3682 26.5131L18.361 26.5167Z" fill="var(--fill-0, white)"/>
</g>
</svg>
