<svg preserveAspectRatio="none" width="100%" height="100%" overflow="visible" style="display: block;" viewBox="0 0 190.979 166.947" fill="none" xmlns="http://www.w3.org/2000/svg">
<g id="Group">
<path id="Vector" d="M54.3225 32.6115L64.3971 62.8186L96.2395 63.0652C100.362 63.0963 102.072 68.3587 98.7545 70.8067L73.1394 89.7218L82.7436 120.082C83.9861 124.013 79.5115 127.263 76.1572 124.867L50.2524 106.349L24.3476 124.866C20.9934 127.263 16.5187 124.011 17.7613 120.081L27.3654 89.7206L1.75033 70.8067C-1.56678 68.3575 0.142652 63.0963 4.2654 63.0652L36.1077 62.8186L46.1824 32.6115C47.4872 28.7006 53.0189 28.7006 54.3225 32.6115Z" fill="var(--fill-0, white)"/>
<path id="Vector_2" d="M169.952 40.0582L177.176 49.9077L188.834 46.2614C190.344 45.7898 191.585 47.5112 190.661 48.7932L183.524 58.7063L190.594 68.6672C191.51 69.9564 190.256 71.6695 188.751 71.187L177.116 67.4629L169.827 77.2658C168.884 78.5347 166.867 77.8715 166.861 76.2914L166.807 64.0752L155.231 60.1715C153.732 59.6651 153.74 57.5439 155.242 57.0483L166.842 53.2224L166.978 41.0074C166.995 39.4309 169.017 38.7833 169.952 40.0582Z" fill="var(--fill-0, white)"/>
<path id="Vector_3" d="M125.967 10.6911L138.11 12.0103L143.291 0.948106C143.962 -0.483602 146.07 -0.238198 146.392 1.30963L148.889 13.2661L161.011 14.7744C162.58 14.9695 162.998 17.05 161.625 17.8365L151.025 23.9057L153.337 35.9005C153.636 37.4543 151.786 38.4933 150.614 37.4315L141.566 29.2255L130.873 35.1295C129.49 35.8945 127.927 34.4556 128.576 33.0131L133.584 21.8707L124.663 13.5246C123.51 12.4497 124.395 10.5212 125.967 10.6911Z" fill="var(--fill-0, white)"/>
<path id="Vector_4" d="M145.166 129.07L137.943 138.922L126.285 135.276C124.775 134.804 123.534 136.525 124.458 137.808L131.595 147.721L124.525 157.682C123.609 158.971 124.863 160.684 126.369 160.202L138.002 156.478L145.291 166.28C146.234 167.549 148.251 166.886 148.257 165.306L148.311 153.09L159.887 149.186C161.386 148.68 161.378 146.559 159.876 146.063L148.276 142.237L148.14 130.022C148.121 128.443 146.101 127.794 145.166 129.07Z" fill="var(--fill-0, white)"/>
<path id="Vector_5" d="M189.148 101.484L177.003 102.803L171.822 91.7412C171.151 90.3094 169.044 90.5548 168.721 92.1027L166.222 104.059L154.101 105.567C152.531 105.763 152.113 107.843 153.487 108.63L164.087 114.699L161.775 126.694C161.476 128.247 163.325 129.286 164.497 128.225L173.546 120.019L184.238 125.923C185.622 126.688 187.184 125.249 186.536 123.806L181.528 112.664L190.449 104.318C191.606 103.243 190.722 101.314 189.148 101.484Z" fill="var(--fill-0, white)"/>
</g>
</svg>
