<svg preserveAspectRatio="none" width="100%" height="100%" overflow="visible" style="display: block;" viewBox="0 0 173.076 173" fill="none" xmlns="http://www.w3.org/2000/svg">
<g id="Group">
<path id="Vector" d="M172.96 100.122L119.892 100.105L157.407 137.958L137.82 157.381L100.189 119.701V173H72.6646V119.816L35.0424 157.332L15.6191 137.744L53.2989 100.13H0L0.11504 72.5726L45.1319 72.7615C47.1695 74.8156 85.3012 113.284 86.016 114.007C95.2018 104.854 118.183 82.1527 127.689 72.7451L173.076 72.7615L172.96 100.13V100.122Z" fill="var(--fill-0, white)"/>
<path id="Vector_2" d="M100.164 53.0935L100.189 0.032865L72.6562 0V53.1756L35.2229 15.5205L15.6354 34.9438L86.0158 105.949L95.9739 96.081L157.432 35.1574L138.017 15.5698L100.164 53.0935Z" fill="var(--fill-0, black)"/>
</g>
</svg>
