<svg preserveAspectRatio="none" width="100%" height="100%" overflow="visible" style="display: block;" viewBox="0 0 77 77" fill="none" xmlns="http://www.w3.org/2000/svg">
<g id="Group">
<path id="Vector" d="M38.5 0C17.2711 0 0 17.2711 0 38.5C0 59.7289 17.2711 77 38.5 77C59.7289 77 77 59.7289 77 38.5C77 17.2711 59.7289 0 38.5 0ZM38.5 70C21.1307 70 7 55.8691 7 38.5C7 21.1309 21.1307 7 38.5 7C55.8693 7 70 21.1309 70 38.5C70 55.8691 55.8691 70 38.5 70Z" fill="var(--fill-0, white)"/>
<path id="Vector_2" d="M52.9366 24.887L33.1373 44.686L24.063 35.6115C22.6964 34.2448 20.4802 34.2446 19.1133 35.6112C17.7464 36.9781 17.7464 39.1941 19.1133 40.5609L30.6624 52.1105C31.3187 52.7668 32.2089 53.1357 33.1371 53.1357H33.1373C34.0655 53.1357 34.9557 52.7668 35.6121 52.1107L57.8863 29.8369C59.2532 28.4701 59.2532 26.2541 57.8863 24.8872C56.5194 23.5204 54.3035 23.5201 52.9366 24.887Z" fill="var(--fill-0, white)"/>
</g>
</svg>
