<svg preserveAspectRatio="none" width="100%" height="100%" overflow="visible" style="display: block;" viewBox="0 0 131 131" fill="none" xmlns="http://www.w3.org/2000/svg">
<g id="XMLID_468_">
<path id="XMLID_469_" d="M96.9332 75.2744C96.678 75.1519 87.1278 70.4491 85.4307 69.8383C84.7379 69.5895 83.9957 69.3466 83.2063 69.3466C81.9167 69.3466 80.8334 69.9893 79.9895 71.2517C79.0355 72.6697 76.1476 76.0455 75.2553 77.0539C75.1387 77.1871 74.9796 77.3461 74.8844 77.3461C74.7989 77.3461 73.3209 76.7375 72.8734 76.5431C62.6286 72.093 54.8524 61.3914 53.7861 59.5867C53.6339 59.3273 53.6275 59.2095 53.6262 59.2095C53.6636 59.0721 54.0082 58.7267 54.1859 58.5485C54.7061 58.0339 55.2697 57.3555 55.8149 56.6992C56.0731 56.3883 56.3317 56.0769 56.5856 55.7835C57.3767 54.8631 57.7289 54.1485 58.1372 53.3208L58.3511 52.8908C59.3481 50.9101 58.4966 49.2386 58.2214 48.6988C57.9956 48.2471 53.9631 38.5149 53.5343 37.4924C52.5034 35.0251 51.141 33.8763 49.2479 33.8763C49.0723 33.8763 49.2479 33.8763 48.5113 33.9073C47.6142 33.9452 42.7294 34.5883 40.5696 35.9497C38.2792 37.3937 34.4045 41.9966 34.4045 50.0913C34.4045 57.3767 39.0278 64.2555 41.0128 66.8717C41.0621 66.9376 41.1527 67.0716 41.2841 67.2638C48.886 78.3656 58.3626 86.5931 67.9694 90.4308C77.2181 94.1252 81.5977 94.5522 84.0875 94.5522H84.088C85.1343 94.5522 85.9717 94.4701 86.7105 94.3974L87.1792 94.3528C90.3743 94.0695 97.3955 90.4313 98.9926 85.993C100.251 82.4973 100.582 78.6778 99.7455 77.2917C99.1721 76.3492 98.1841 75.8749 96.9332 75.2744Z" fill="var(--fill-0, white)"/>
<path id="XMLID_470_" d="M66.6627 0C31.1839 0 2.31962 28.6473 2.31962 63.8595C2.31962 75.2484 5.3675 86.3966 11.1413 96.1536L0.0900701 128.753C-0.115787 129.36 0.0373298 130.032 0.486898 130.49C0.811421 130.821 1.25163 131 1.7012 131C1.87346 131 2.04699 130.974 2.21627 130.92L36.2082 120.118C45.5101 125.088 56.0232 127.712 66.6632 127.712C102.139 127.712 131 99.0679 131 63.8595C131 28.6473 102.139 0 66.6627 0ZM66.6627 114.41C56.651 114.41 46.954 111.519 38.6185 106.049C38.3382 105.865 38.0129 105.771 37.6854 105.771C37.5123 105.771 37.3387 105.797 37.1699 105.851L20.142 111.263L25.6389 95.046C25.8167 94.5212 25.7278 93.9423 25.4003 93.4949C19.0527 84.8217 15.6974 74.5743 15.6974 63.8595C15.6974 35.9825 38.5603 13.3025 66.6623 13.3025C94.761 13.3025 117.621 35.9825 117.621 63.8595C117.622 91.7332 94.7618 114.41 66.6627 114.41Z" fill="var(--fill-0, white)"/>
</g>
</svg>
